<svg width="21" height="18" viewBox="0 0 21 18" fill="none" xmlns="http://www.w3.org/2000/svg">
<path d="M18.8466 1.41313C18.6969 0.737452 18.0888 0.25 17.3987 0.25H2.60618C1.91603 0.25 1.30792 0.737452 1.1583 1.41313L0 6.65444V6.69788C0 7.70656 0.535715 8.5946 1.33688 9.0917V16.2249C1.33688 17.0405 1.99807 17.7017 2.81371 17.7017H17.2394C18.0551 17.7017 18.7162 17.0405 18.7162 16.2249V9.06274C19.4885 8.56081 20.0049 7.68726 20.0049 6.69788V6.65444L18.8466 1.41313ZM4.79248 6.67375V6.69788C4.79248 7.78861 3.90445 8.67182 2.81854 8.67182C1.74228 8.67182 0.868727 7.80792 0.844596 6.74131L1.97877 1.5917C2.04151 1.30212 2.30695 1.08977 2.60618 1.08977H5.48264L4.79248 6.67375ZM9.58013 6.69788C9.58013 7.78861 8.6921 8.67182 7.60619 8.67182C6.52511 8.67182 5.6419 7.79826 5.63225 6.72201L6.32723 1.08977H9.58013V6.69788ZM10.4199 6.69788V1.08977H13.6728L14.3678 6.72201C14.3533 7.79826 13.4749 8.67182 12.3938 8.67182C11.3079 8.67664 10.4199 7.78861 10.4199 6.69788ZM14.1844 15.7471C12.8813 15.7471 11.8292 14.695 11.8292 13.3919C11.8292 12.0888 12.8813 11.0367 14.1844 11.0367C14.8215 11.0367 15.3523 11.2683 15.7626 11.6544L15.1207 12.2674C14.9469 12.0985 14.6381 11.9054 14.1796 11.9054C13.3736 11.9054 12.7172 12.5714 12.7172 13.3919C12.7172 14.2124 13.3736 14.8784 14.1796 14.8784C15.111 14.8784 15.4633 14.2075 15.5164 13.86H14.1796V13.0541H16.4093C16.4286 13.1699 16.4479 13.2905 16.4479 13.445C16.4431 14.7915 15.5454 15.7471 14.1844 15.7471ZM17.1863 8.67664C16.0956 8.67664 15.2124 7.78861 15.2124 6.7027V6.67857L14.5222 1.08977H17.3987C17.6979 1.08977 17.9634 1.30212 18.0261 1.5917L19.1603 6.74131C19.1361 7.81274 18.2626 8.67664 17.1863 8.67664Z" fill="white"/>
</svg>
