<svg width="28" height="28" viewBox="0 0 28 28" fill="none" xmlns="http://www.w3.org/2000/svg">
<path d="M14.0003 3.07639C17.5345 3.07639 18.0164 3.07639 19.4622 3.07639C20.7473 3.07639 21.3899 3.39767 21.8718 3.55831C22.5144 3.8796 22.9963 4.04024 23.4782 4.52217C23.9602 5.0041 24.2815 5.48603 24.4421 6.1286C24.6027 6.61052 24.7634 7.25309 24.924 8.53824C24.924 9.98402 24.924 10.3053 24.924 14.0001C24.924 17.6949 24.924 18.0161 24.924 19.4619C24.924 20.7471 24.6027 21.3896 24.4421 21.8716C24.1208 22.5141 23.9602 22.9961 23.4782 23.478C22.9963 23.9599 22.5144 24.2812 21.8718 24.4418C21.3899 24.6025 20.7473 24.7631 19.4622 24.9238C18.0164 24.9238 17.6951 24.9238 14.0003 24.9238C10.3055 24.9238 9.98426 24.9238 8.53848 24.9238C7.25334 24.9238 6.61077 24.6025 6.12884 24.4418C5.48627 24.1206 5.00434 23.9599 4.52241 23.478C4.04049 22.9961 3.7192 22.5141 3.55856 21.8716C3.39792 21.3896 3.23727 20.7471 3.07663 19.4619C3.07663 18.0161 3.07663 17.6949 3.07663 14.0001C3.07663 10.3053 3.07663 9.98402 3.07663 8.53824C3.07663 7.25309 3.39792 6.61052 3.55856 6.1286C3.87984 5.48603 4.04049 5.0041 4.52241 4.52217C5.00434 4.04024 5.48627 3.71896 6.12884 3.55831C6.61077 3.39767 7.25334 3.23703 8.53848 3.07639C9.98426 3.07639 10.4662 3.07639 14.0003 3.07639ZM14.0003 0.666748C10.3055 0.666748 9.98426 0.666748 8.53848 0.666748C7.0927 0.666748 6.12884 0.988034 5.32563 1.30932C4.52241 1.6306 3.7192 2.11253 2.91599 2.91575C2.11278 3.71896 1.79149 4.36153 1.30956 5.32538C0.988278 6.1286 0.827635 7.09245 0.666992 8.53824C0.666992 9.98402 0.666992 10.4659 0.666992 14.0001C0.666992 17.6949 0.666992 18.0161 0.666992 19.4619C0.666992 20.9077 0.988278 21.8716 1.30956 22.6748C1.63085 23.478 2.11278 24.2812 2.91599 25.0844C3.7192 25.8876 4.36177 26.2089 5.32563 26.6908C6.12884 27.0121 7.0927 27.1728 8.53848 27.3334C9.98426 27.3334 10.4662 27.3334 14.0003 27.3334C17.5345 27.3334 18.0164 27.3334 19.4622 27.3334C20.908 27.3334 21.8718 27.0121 22.675 26.6908C23.4782 26.3696 24.2815 25.8876 25.0847 25.0844C25.8879 24.2812 26.2092 23.6386 26.6911 22.6748C27.0124 21.8716 27.173 20.9077 27.3337 19.4619C27.3337 18.0161 27.3337 17.5342 27.3337 14.0001C27.3337 10.4659 27.3337 9.98402 27.3337 8.53824C27.3337 7.09245 27.0124 6.1286 26.6911 5.32538C26.3698 4.52217 25.8879 3.71896 25.0847 2.91575C24.2815 2.11253 23.6389 1.79125 22.675 1.30932C21.8718 0.988034 20.908 0.827391 19.4622 0.666748C18.0164 0.666748 17.6951 0.666748 14.0003 0.666748Z" fill="white"/>
<path d="M14.0003 7.09245C10.1449 7.09245 7.0927 10.1447 7.0927 14.0001C7.0927 17.8555 10.1449 20.9077 14.0003 20.9077C17.8557 20.9077 20.908 17.8555 20.908 14.0001C20.908 10.1447 17.8557 7.09245 14.0003 7.09245ZM14.0003 18.4981C11.5907 18.4981 9.50233 16.5704 9.50233 14.0001C9.50233 11.5904 11.43 9.50209 14.0003 9.50209C16.41 9.50209 18.4983 11.4298 18.4983 14.0001C18.4983 16.4097 16.41 18.4981 14.0003 18.4981Z" fill="white"/>
<path d="M21.0686 8.53824C21.9558 8.53824 22.675 7.81901 22.675 6.93181C22.675 6.0446 21.9558 5.32538 21.0686 5.32538C20.1814 5.32538 19.4622 6.0446 19.4622 6.93181C19.4622 7.81901 20.1814 8.53824 21.0686 8.53824Z" fill="white"/>
</svg>
