<svg width="28" height="28" viewBox="0 0 28 28" fill="none" xmlns="http://www.w3.org/2000/svg">
<path d="M14.0825 0.666748C6.70396 0.666748 0.666992 6.82059 0.666992 14.342C0.666992 19.983 4.02087 24.7693 8.71628 26.8206C8.71628 25.795 8.71627 24.7693 8.88396 23.7437C9.21935 22.5471 10.5609 16.2223 10.5609 16.2223C10.5609 16.2223 10.0578 15.3676 10.0578 14.0001C10.0578 11.9488 11.2317 10.4103 12.5732 10.4103C13.7471 10.4103 14.4179 11.265 14.4179 12.4616C14.4179 13.6582 13.5794 15.5385 13.244 17.2479C12.9086 18.6155 13.9148 19.812 15.424 19.812C17.9394 19.812 19.6164 16.5642 19.6164 12.4616C19.6164 9.3847 17.604 7.16247 14.0825 7.16247C10.0578 7.16247 7.54244 10.2394 7.54244 13.6582C7.54244 14.8548 7.87782 15.7095 8.3809 16.3932C8.5486 16.7351 8.71627 16.7351 8.54858 17.077C8.54858 17.2479 8.38089 17.9317 8.2132 18.1026C8.04551 18.4445 7.87782 18.6155 7.54244 18.4445C5.69781 17.5898 4.85933 15.5385 4.85933 13.1454C4.85933 9.21376 8.0455 4.59837 14.4179 4.59837C19.6164 4.59837 22.9702 8.35905 22.9702 12.4616C22.9702 17.7608 20.1194 21.8633 15.7594 21.8633C14.2502 21.8633 12.9086 21.0086 12.4055 20.1539C12.4055 20.1539 11.5671 23.2309 11.3994 23.9146C11.064 24.9403 10.5609 25.9659 10.0578 26.8206C11.2317 27.1625 12.5732 27.3334 13.9148 27.3334C21.2933 27.3334 27.3302 21.1796 27.3302 13.6582C27.4979 6.82059 21.461 0.666748 14.0825 0.666748Z" fill="white"/>
</svg>
