<svg width="22" height="25" viewBox="0 0 22 25" fill="none" xmlns="http://www.w3.org/2000/svg">
<path d="M15.6945 16.9436V8.08962C17.4588 9.35478 19.5766 10.0325 21.7477 10.0268V6.65735C20.4659 6.38684 19.3067 5.70693 18.4451 4.72014C17.7573 4.27466 17.1675 3.69383 16.7115 3.01304C16.2555 2.33226 15.9429 1.56576 15.7927 0.760254H12.603V18.1991C12.5719 18.9581 12.3053 19.6886 11.84 20.2891C11.3747 20.8896 10.7339 21.3303 10.0067 21.5499C9.2795 21.7695 8.50192 21.7572 7.78204 21.5146C7.06216 21.272 6.43571 20.8112 5.98974 20.1962C5.26834 19.8162 4.69466 19.206 4.35989 18.4625C4.02511 17.719 3.94844 16.885 4.14208 16.0929C4.33571 15.3009 4.78854 14.5963 5.42857 14.0911C6.06861 13.586 6.85913 13.3093 7.67449 13.305C8.04095 13.308 8.405 13.3646 8.75508 13.4729V10.1025C7.20555 10.1288 5.69715 10.6054 4.4138 11.4742C3.13044 12.3429 2.12756 13.5663 1.52743 14.9951C0.927299 16.424 0.755841 17.9966 1.03396 19.5212C1.31208 21.0458 2.02776 22.4565 3.09375 23.5814C4.4476 24.4948 6.05047 24.9679 7.68333 24.9361C9.80478 24.9361 11.8396 24.0946 13.3415 22.5963C14.8433 21.0979 15.6895 19.0651 15.6945 16.9436Z" fill="white"/>
</svg>
