<svg width="20" height="20" viewBox="0 0 20 20" fill="none" xmlns="http://www.w3.org/2000/svg">
<path d="M20 2.30769C19.25 2.76923 18.5 2.92308 17.625 3.07692C18.5 2.46154 19.125 1.53846 19.375 0.307692C18.625 0.923077 17.75 1.23077 16.75 1.53846C16 0.615385 14.875 0 13.75 0C11.125 0 9.125 3.07692 9.75 6.15385C6.375 6 3.375 4 1.25 0.923078C0.125 3.23077 0.75 6.15385 2.5 7.69231C1.875 7.69231 1.25 7.38462 0.625 7.07692C0.625 9.38462 2 11.5385 3.875 12.1538C3.25 12.3077 2.625 12.4615 2 12.3077C2.5 14.3077 4 15.8462 5.875 15.8462C4.375 17.2308 2.125 18 0 17.6923C1.875 19.0769 4 20 6.25 20C13.875 20 18.125 12.1538 17.875 4.92308C18.75 4.30769 19.5 3.38462 20 2.30769Z" fill="white"/>
</svg>
