<svg width="28" height="20" viewBox="0 0 28 20" fill="none" xmlns="http://www.w3.org/2000/svg">
<path d="M26.667 3.03572C26.3337 1.78572 25.5003 0.892857 24.3337 0.535715C22.3337 3.19311e-07 13.8336 0 13.8336 0C13.8336 0 5.50034 3.19311e-07 3.33367 0.535715C2.167 0.892857 1.33365 1.78572 1.00032 3.03572C0.666987 5.35714 0.666992 10 0.666992 10C0.666992 10 0.666997 14.6429 1.167 16.9643C1.50033 18.2143 2.33365 19.1071 3.50032 19.4643C5.50032 20 14.0003 20 14.0003 20C14.0003 20 22.3336 20 24.5003 19.4643C25.667 19.1071 26.5003 18.2143 26.8337 16.9643C27.3337 14.6429 27.3337 10 27.3337 10C27.3337 10 27.3337 5.35714 26.667 3.03572ZM11.3336 14.2857V5.71429L18.3337 10L11.3336 14.2857Z" fill="white"/>
</svg>
